<?xml version="1.0" encoding="utf-8"?>
<!-- Generator: Adobe Illustrator 22.0.1, SVG Export Plug-In . SVG Version: 6.00 Build 0)  -->
<svg version="1.1" id="Layer_1" xmlns="http://www.w3.org/2000/svg" xmlns:xlink="http://www.w3.org/1999/xlink" x="0px" y="0px"
	 width="250px" height="110.35px" viewBox="0 0 250 110.35" style="enable-background:new 0 0 250 110.35;" xml:space="preserve">
<path style="fill:#A9ACAC;" d="M87.91,53.84l-2.09-14.95h4.39l0.98,8.83l4.26-8.83h3.34l1.29,8.83l3.98-8.83h4.44l-7.15,14.95h-4.19
	l-1.14-7.92l-3.94,7.92H87.91z M111.29,52.02c-1.28-1.5-1.79-3.62-1.41-5.96c0.67-4.22,4.9-7.65,9.42-7.65
	c2.28,0,4.34,0.89,5.67,2.45c1.21,1.42,1.7,3.29,1.39,5.28c-0.75,4.74-4.75,8.19-9.51,8.19C114.54,54.32,112.56,53.5,111.29,52.02z
	 M114.25,46.15c-0.19,1.16,0.07,2.22,0.72,2.98c0.59,0.69,1.47,1.07,2.46,1.07c2.18,0,4.18-1.81,4.55-4.13
	c0.14-0.87-0.11-1.75-0.68-2.42c-0.62-0.72-1.56-1.14-2.58-1.14C116.65,42.52,114.56,44.22,114.25,46.15z M134.49,53.84h-4.24
	l2.37-14.95h5.83c1.73,0,3.06,0.48,3.84,1.4c0.7,0.82,0.94,1.94,0.72,3.33c-0.34,2.12-1.76,3.74-3.68,4.22l3.66,6.01h-5.25
	l-2.44-5.09L134.49,53.84z M135.92,45.38c1.67,0,2.49-0.5,2.67-1.61c0.07-0.45,0.01-0.78-0.2-1.02c-0.4-0.46-1.27-0.52-1.9-0.52
	h-0.17l-0.5,3.15H135.92z M156.49,50.19h-4.52l1.79-11.3h-4.24l-2.37,14.95h8.75L156.49,50.19z M174.85,46.4
	c-0.65,4.1-4.57,7.44-8.74,7.44h-5.61l2.37-14.95h5.54c2.05,0,3.85,0.78,5.07,2.21C174.69,42.51,175.17,44.39,174.85,46.4z
	 M169.89,43.57c-0.57-0.67-1.5-1.03-2.68-1.03h-0.69l-1.21,7.64h0.57c2.49,0,4.2-1.44,4.58-3.86
	C170.66,45.18,170.46,44.23,169.89,43.57z M86.29,65.08l-0.58,3.65h3.11l-1.79,11.3h4.24l1.79-11.3h3.11l0.58-3.65H86.29z
	 M109.1,65.08l3.26,14.95h-4.49l-0.54-2.52h-4.86l-1.4,2.52h-4.52l8.12-14.95H109.1z M106.03,70.47l-1.83,3.7h2.48L106.03,70.47z
	 M115.85,80.03h8.71l0.58-3.65h-4.48l0.32-2.03h4.25l0.58-3.65h-4.25l0.31-1.96h4.48l0.58-3.65h-8.71L115.85,80.03z M141.08,65.08
	l-5.1,5.54l0.88-5.54h-4.24l-2.37,14.95h4.24l0.94-5.91l3.64,5.91h5.44l-5.21-7.83l7.11-7.12H141.08z M163.7,73.92l-1.29-8.83h-3.34
	l-4.26,8.83l-0.98-8.83h-4.39l2.09,14.95h4.17l3.94-7.92l1.14,7.92h4.19l7.15-14.95h-4.44L163.7,73.92z M188.59,67.05
	c1.21,1.42,1.7,3.29,1.39,5.28c-0.75,4.74-4.75,8.19-9.51,8.19c-2.32,0-4.29-0.82-5.56-2.31c-1.28-1.5-1.79-3.62-1.42-5.96
	c0.67-4.22,4.9-7.65,9.42-7.65C185.19,64.6,187.26,65.49,188.59,67.05z M184.92,69.85c-0.62-0.72-1.56-1.14-2.58-1.14
	c-2.07,0-4.16,1.69-4.47,3.63c-0.18,1.16,0.07,2.22,0.72,2.98c0.59,0.69,1.47,1.07,2.46,1.07c2.18,0,4.18-1.81,4.55-4.13
	C185.73,71.4,185.49,70.52,184.92,69.85z M205.6,73.57l-5.2-8.38l-0.07-0.11h-4.09l-2.37,14.95h4.24l1.35-8.5l5.26,8.5h4.09
	l2.37-14.95h-4.24L205.6,73.57z M227.61,67.29c1.2,1.41,1.69,3.29,1.37,5.3c-0.65,4.1-4.57,7.44-8.74,7.44h-5.61L217,65.08h5.54
	C224.6,65.08,226.39,65.87,227.61,67.29z M224.03,69.76c-0.57-0.67-1.5-1.03-2.68-1.03h-0.69l-1.21,7.64h0.57
	c2.49,0,4.2-1.44,4.58-3.86C224.79,71.37,224.59,70.42,224.03,69.76z M249.91,72.33c-0.75,4.74-4.75,8.19-9.51,8.19
	c-2.31,0-4.29-0.82-5.56-2.31c-1.28-1.5-1.79-3.62-1.42-5.96c0.67-4.22,4.9-7.65,9.42-7.65c2.28,0,4.34,0.89,5.67,2.45
	C249.73,68.47,250.22,70.34,249.91,72.33z M238.52,75.32c0.59,0.69,1.47,1.08,2.46,1.08c2.18,0,4.18-1.81,4.55-4.13
	c0.14-0.87-0.11-1.75-0.68-2.42c-0.62-0.72-1.56-1.14-2.58-1.14c-2.07,0-4.16,1.69-4.47,3.63
	C237.62,73.51,237.87,74.57,238.52,75.32z"/>
<path style="fill:#29A457;" d="M7.87,26.31c4.33,0,7.86-4.58,7.86-10.24c0-5.66-3.53-10.24-7.86-10.24C3.53,5.82,0,10.41,0,16.06
	C0,21.73,3.53,26.31,7.87,26.31"/>
<path style="fill:#21409A;" d="M133.04,0C113.09,2.4,67.01,8,38,20.84c0,0,19.95,8.55,52.31-3.44l0,0.01
	c12.1-4.92,26.16-10.13,43.21-15.54c0.56-0.3,0.6-0.98,0.6-0.98C133.98,0.11,133.38,0.01,133.04,0"/>
<path style="fill:#DA2128;" d="M38,20.84L49.12,9.71c1.17-1.64,0-1.69-0.72-1.61C37.79,11.77,6.14,24.56,5.66,46.83
	C5.62,47.21,5.6,47.6,5.6,48c13.72-0.34,27.84-4.73,39.11-9.38c0.61-0.34,1.24-0.68,1.87-1.03l-0.11,0.29
	c12.33-5.26,20.84-10.59,20.84-10.59c6.92-3.12,14.48-6.43,23-9.88l0-0.01C57.95,29.39,38,20.84,38,20.84"/>
<path style="fill:#FCB134;" d="M5.98,51.4C5.7,50.25,5.58,49.11,5.6,48c13.72-0.34,27.84-4.73,39.11-9.38
	C21.99,51.2,16.79,59.36,15.15,62.83c-0.62,0.9-1.34,0.73-1.81,0.45c-4.06-4.13-6.42-8.02-7.33-11.69L6,51.6
	C5.99,51.54,5.99,51.46,5.98,51.4 M60.42,47.54c4.42-8.81,7.22-16.2,6.89-20.25c0,0-8.5,5.33-20.83,10.59L30.1,81.58
	C46.55,70.91,56.24,55.49,60.42,47.54"/>
<path d="M44.71,38.62c0.61-0.34,1.24-0.68,1.87-1.03l-0.11,0.29C45.89,38.13,45.3,38.37,44.71,38.62 M20.86,110.07
	c8.39-11.04,35.17-48.83,43.64-71.46c-3.15,8.41-11.63,15.43-28.09,26.09L30.1,81.58l-10.44,27.86
	C19.71,109.76,20.26,110.87,20.86,110.07"/>
</svg>
